<svg version="1.1" viewBox="0.0 0.0 328.5590551181102 365.13385826771656" fill="none" stroke="none" stroke-linecap="square" stroke-miterlimit="10" xmlns:xlink="http://www.w3.org/1999/xlink" xmlns="http://www.w3.org/2000/svg"><clipPath id="p.0"><path d="m0 0l328.55905 0l0 365.13385l-328.55905 0l0 -365.13385z" clip-rule="nonzero"/></clipPath><g clip-path="url(#p.0)"><path fill="#000000" fill-opacity="0.0" d="m0 0l328.55905 0l0 365.13385l-328.55905 0z" fill-rule="evenodd"/><path fill="#ffffff" d="m176.97102 -0.0012732283l-17.792633 1.1343299l-17.792633 3.3432884l-16.71791 4.4179163l-16.658203 5.611948l-14.508759 7.7612047l-15.583481 8.8955345l-13.314621 10.029865l-12.239899 11.104492l-11.165176 12.238827l-11.105471 14.507477l-8.896317 14.447784l-6.6871634 15.582108l-6.687165 15.582115l-4.4780116 17.791069l-2.2091527 16.716446l-1.1344297 18.9254l1.1344297 17.791061l2.2091527 17.791077l4.4780116 16.71643l6.687165 16.656738l6.6871634 15.582108l8.896317 14.507477l9.971041 13.313477l12.299606 12.2388l12.239899 12.238831l13.314621 10.029877l14.508759 8.895538l15.583481 7.8208923l16.658203 5.552246l16.71791 4.4179077l17.792633 2.2686768l17.792633 1.0746155l21.136215 -1.0746155l18.927063 -3.3432922l18.927063 -5.552246l18.927063 -7.820923l16.717926 -8.895508l15.583466 -11.104492l14.449066 -13.373169l13.374329 -14.447784l1.074707 -2.2686462l1.1344299 -2.2089539l0 -2.2089844l-1.1344299 -2.2686462l-2.209137 -2.2089539l-1.1344299 -1.074646l-3.3435974 -1.1343079l-2.209137 0l-15.583496 2.2089539l-16.717896 0l-14.449066 -1.074646l-15.583481 -3.3432617l-14.449051 -4.4776306l-13.374329 -6.6865845l-12.239899 -7.7612l-12.239899 -8.895538l-11.105469 -10.029861l-10.030746 -11.164185l-7.821594 -12.238831l-7.7618866 -12.238815l-5.5527344 -14.447784l-4.478012 -14.447784l-2.2091522 -15.582108l-1.1344299 -16.716446l1.1344299 -17.791069l3.3435822 -17.791069l5.5527344 -17.850769l8.896317 -15.522408l10.030746 -15.582111l12.239899 -13.373154l13.374329 -12.238823l15.583481 -10.029865l2.2091522 -2.2089577l1.1344299 -2.2089586l1.0747223 -2.2686596l0 -2.2089586l-1.0747223 -2.2089581l-1.1344299 -2.2686596l-2.2091522 -1.0746284l-2.2688599 -1.13433l-16.658203 -2.2089584l-16.71791 -1.1343299z" fill-rule="evenodd"/></g></svg>